<svg width="459" height="30" viewBox="0 0 459 30" fill="none" xmlns="http://www.w3.org/2000/svg">
<path d="M0.197849 1.89462C0.197849 2.19139 0.445161 2.38924 0.939785 2.63655C1.87957 3.13118 2.86882 4.56559 2.96774 7.87957V22.471C2.86882 25.7355 1.87957 27.2194 0.939785 27.6645C0.445161 27.9118 0.197849 28.1097 0.197849 28.4065C0.197849 28.7527 0.494624 29 0.989248 29H11.3269C21.3183 29 26.314 22.0753 26.314 15.1505C26.314 8.2258 21.3183 1.30107 11.3763 1.30107H0.989248C0.494624 1.30107 0.197849 1.54838 0.197849 1.89462ZM11.3763 2.48817C21.5656 2.48817 21.5656 27.8129 11.3763 27.8129H10.1398V2.48817H11.3763ZM49.7588 27.9118C50.0555 27.6645 50.1545 27.1204 50.0555 26.7247C49.9071 26.329 49.7588 26.329 49.3136 26.5763C49.0168 26.7247 48.6706 26.8237 48.4233 26.8237C47.533 26.8237 47.533 25.9333 47.3846 24.5978L46.4448 16.6344C45.8018 11.1935 41.8448 9.0172 36.0082 9.0172C32.1996 9.0172 29.4297 11.9355 29.4297 14.7548C29.4297 16.7828 30.7652 17.6237 32.1502 17.6237C33.5846 17.6237 35.1179 16.6344 35.1179 15.0516C35.1179 13.0237 32.2985 10.3032 35.5631 10.3032C38.5308 10.3032 39.2233 13.5183 39.3717 14.7548C39.8663 19.3548 27.8469 17.8215 27.8469 24.5484C27.8469 27.9118 30.6663 29.5935 33.6835 29.5935C36.3545 29.5935 39.2727 28.2581 40.5093 25.5376L40.5588 25.8839C40.6577 26.9226 41.1523 29.2968 45.6534 29.2968C47.7308 29.2968 49.0663 28.5054 49.7588 27.9118ZM35.2168 24.5484C35.2168 20.7892 38.333 20.2946 39.6684 17.4258L40.262 23.114C39.8168 25.1419 38.1846 26.2301 36.8985 26.2301C35.9588 26.2301 35.2168 25.686 35.2168 24.5484ZM50.486 9.21505C50.2387 9.21505 50.0903 9.36344 50.0903 9.61075V10.1054C50.0903 10.3527 50.2387 10.5011 50.486 10.5011H51.3269C52.2667 10.5011 52.4645 11.5398 52.514 12.529V24.9441C52.4645 27.8624 54.7398 29.3957 57.4107 29.3957C59.9333 29.3957 62.8516 27.9613 64.3849 24.9935C64.4839 24.7957 64.4344 24.4989 64.2366 24.3011C64.0882 24.1032 63.8903 24.1527 63.7419 24.3505C63.1484 25.1419 61.7634 26.329 60.7247 26.329C59.9828 26.329 59.4387 25.7849 59.4387 24.1032V10.5011H63.1978C63.4452 10.5011 63.5935 10.3527 63.5935 10.1054V9.61075C63.5935 9.36344 63.4452 9.21505 63.1978 9.21505H60.6258C59.3892 9.11613 59.4387 6.93978 59.4387 5.75268V4.36774H58.6473C56.6193 7.97849 52.6129 9.21505 51.3269 9.21505H50.486ZM87.5801 27.9118C87.8769 27.6645 87.9758 27.1204 87.8769 26.7247C87.7285 26.329 87.5801 26.329 87.1349 26.5763C86.8382 26.7247 86.4919 26.8237 86.2446 26.8237C85.3543 26.8237 85.3543 25.9333 85.2059 24.5978L84.2661 16.6344C83.6231 11.1935 79.6661 9.0172 73.8295 9.0172C70.0209 9.0172 67.2511 11.9355 67.2511 14.7548C67.2511 16.7828 68.5865 17.6237 69.9715 17.6237C71.4059 17.6237 72.9392 16.6344 72.9392 15.0516C72.9392 13.0237 70.1199 10.3032 73.3844 10.3032C76.3521 10.3032 77.0446 13.5183 77.193 14.7548C77.6876 19.3548 65.6683 17.8215 65.6683 24.5484C65.6683 27.9118 68.4876 29.5935 71.5048 29.5935C74.1758 29.5935 77.0941 28.2581 78.3306 25.5376L78.3801 25.8839C78.479 26.9226 78.9736 29.2968 83.4747 29.2968C85.5521 29.2968 86.8876 28.5054 87.5801 27.9118ZM73.0382 24.5484C73.0382 20.7892 76.1543 20.2946 77.4898 17.4258L78.0833 23.114C77.6382 25.1419 76.0059 26.2301 74.7199 26.2301C73.7801 26.2301 73.0382 25.686 73.0382 24.5484ZM113.583 23.9548C113.731 23.7075 113.632 23.3613 113.434 23.1634C113.236 22.9656 113.039 22.9656 112.94 23.2129C112.148 24.9441 109.626 26.2796 107.153 26.2796C100.079 26.2796 97.0622 19.9978 97.0622 13.914C97.0622 8.12688 99.8321 2.38924 104.531 2.38924C108.686 2.38924 106.608 6.19785 106.608 9.4129C106.608 11.0946 107.697 12.3806 109.576 12.3806C112.346 12.3806 113.484 10.4516 113.484 8.42365C113.484 4.56559 109.972 1.0043 104.531 1.0043C94.4901 1.0043 89.4944 8.12688 89.4944 15.2C89.4944 22.2731 94.4901 29.3462 104.531 29.3462C108.092 29.3462 112.148 26.8731 113.583 23.9548ZM134.443 23.2129C134.344 23.1634 134.195 23.2624 134.146 23.3613C133.75 24.4989 131.969 25.686 129.843 25.686C126.133 25.686 124.402 22.471 124.006 18.9591L133.305 18.4645C134.542 18.4151 135.333 17.7226 135.333 16.8323V16.7828C135.333 13.6172 132.662 8.76989 127.666 8.76989C113.569 8.76989 112.729 29.1484 126.726 29.1484C130.733 29.1484 134.047 27.071 134.69 23.5097C134.69 23.3613 134.591 23.2624 134.492 23.2129H134.443ZM123.907 17.4258C123.907 13.6172 125.44 9.90752 127.666 9.90752C130.387 9.90752 131.524 16.7333 128.309 17.1785L123.907 17.4258ZM150.453 28.4065C150.453 28.7527 150.7 29 151.195 29H162.126C162.571 29 162.917 28.7527 162.917 28.4065C162.917 28.1097 162.67 27.9118 162.126 27.6645C161.137 27.1699 160.741 25.5376 160.148 21.9269L159.109 16.2387C158.169 10.9462 156.636 8.96774 151.986 8.96774C149.266 8.96774 147.287 10.6 146.446 12.529V8.86881C146.446 8.6215 146.298 8.47311 146.001 8.47311C145.803 8.47311 145.507 8.52258 145.309 8.72043C144.072 9.51182 141.352 10.6495 138.631 10.7484C138.335 10.7978 138.087 11.0452 138.087 11.3419V11.3914C138.087 11.6882 138.236 11.886 138.631 12.0839C139.423 12.4796 139.472 13.7161 139.472 14.6064V21.9269C139.472 25.5871 138.483 27.1699 137.444 27.6645C136.95 27.9118 136.702 28.1097 136.702 28.4065C136.702 28.7527 136.999 29 137.494 29H148.474C148.87 29 149.216 28.7527 149.216 28.4065C149.216 28.1097 148.969 27.9118 148.474 27.6645C147.436 27.1699 146.446 25.5871 146.446 21.9269V15.843C146.496 13.4194 147.782 11.6882 149.365 11.6882C151.442 11.6882 152.036 14.4086 152.481 17.9204L153.173 22.9656C153.569 25.8839 152.085 27.2194 151.145 27.6645C150.651 27.9118 150.453 28.1097 150.453 28.4065ZM163.419 9.21505C163.171 9.21505 163.023 9.36344 163.023 9.61075V10.1054C163.023 10.3527 163.171 10.5011 163.419 10.5011H164.26C165.199 10.5011 165.397 11.5398 165.447 12.529V24.9441C165.397 27.8624 167.672 29.3957 170.343 29.3957C172.866 29.3957 175.784 27.9613 177.318 24.9935C177.416 24.7957 177.367 24.4989 177.169 24.3011C177.021 24.1032 176.823 24.1527 176.675 24.3505C176.081 25.1419 174.696 26.329 173.657 26.329C172.915 26.329 172.371 25.7849 172.371 24.1032V10.5011H176.13C176.378 10.5011 176.526 10.3527 176.526 10.1054V9.61075C176.526 9.36344 176.378 9.21505 176.13 9.21505H173.558C172.322 9.11613 172.371 6.93978 172.371 5.75268V4.36774H171.58C169.552 7.97849 165.546 9.21505 164.26 9.21505H163.419ZM195.884 23.2129C195.785 23.1634 195.637 23.2624 195.587 23.3613C195.192 24.4989 193.411 25.686 191.284 25.686C187.574 25.686 185.843 22.471 185.448 18.9591L194.746 18.4645C195.983 18.4151 196.774 17.7226 196.774 16.8323V16.7828C196.774 13.6172 194.103 8.76989 189.108 8.76989C175.011 8.76989 174.17 29.1484 188.168 29.1484C192.174 29.1484 195.488 27.071 196.131 23.5097C196.131 23.3613 196.033 23.2624 195.934 23.2129H195.884ZM185.349 17.4258C185.349 13.6172 186.882 9.90752 189.108 9.90752C191.828 9.90752 192.966 16.7333 189.751 17.1785L185.349 17.4258ZM199.529 11.3914C199.529 11.6882 199.677 11.886 200.073 12.0839C200.716 12.4796 200.864 13.4194 200.914 14.2107V22.471C200.815 25.7355 199.826 27.2194 198.886 27.6645C198.391 27.9118 198.144 28.1097 198.144 28.4065C198.144 28.7527 198.441 29 198.935 29H209.817C210.312 29 210.608 28.7527 210.608 28.4065C210.608 28.1097 210.361 27.9118 209.867 27.6645C208.828 27.1699 207.839 25.5871 207.839 21.9269V16.0903C208.531 13.4194 210.163 11.6882 211.153 11.6882C212.191 11.6882 212.439 14.6559 215.06 14.6559C218.869 14.6559 219.215 8.67096 213.23 8.67096C210.707 8.67096 208.729 10.7484 207.839 13.1226V8.86881C207.839 8.6215 207.69 8.47311 207.443 8.47311C207.245 8.47311 206.948 8.57204 206.75 8.72043C205.514 9.56129 202.793 10.6495 200.073 10.7978C199.727 10.7978 199.529 11.0452 199.529 11.3914ZM218.238 28.4065C218.238 28.7527 218.535 29 219.029 29H230.158C230.604 29 230.95 28.7527 230.95 28.4065C230.95 28.1097 230.703 27.9118 230.208 27.6645C229.169 27.1699 228.18 25.5871 228.18 21.9269V8.37419C228.18 4.71397 229.169 3.13118 230.208 2.63655C230.703 2.38924 230.95 2.19139 230.95 1.89462C230.95 1.54838 230.604 1.30107 230.158 1.30107H219.029C218.535 1.30107 218.238 1.54838 218.238 1.89462C218.238 2.19139 218.485 2.38924 218.98 2.63655C219.92 3.13118 220.909 4.56559 221.008 7.87957V22.471C220.909 25.7355 219.92 27.2194 218.98 27.6645C218.485 27.9118 218.238 28.1097 218.238 28.4065ZM245.127 28.4065C245.127 28.7527 245.374 29 245.869 29H256.8C257.245 29 257.592 28.7527 257.592 28.4065C257.592 28.1097 257.344 27.9118 256.8 27.6645C255.811 27.1699 255.415 25.5376 254.822 21.9269L253.783 16.2387C252.843 10.9462 251.31 8.96774 246.66 8.96774C243.94 8.96774 241.961 10.6 241.121 12.529V8.86881C241.121 8.6215 240.972 8.47311 240.675 8.47311C240.478 8.47311 240.181 8.52258 239.983 8.72043C238.746 9.51182 236.026 10.6495 233.306 10.7484C233.009 10.7978 232.761 11.0452 232.761 11.3419V11.3914C232.761 11.6882 232.91 11.886 233.306 12.0839C234.097 12.4796 234.146 13.7161 234.146 14.6064V21.9269C234.146 25.5871 233.157 27.1699 232.118 27.6645C231.624 27.9118 231.376 28.1097 231.376 28.4065C231.376 28.7527 231.673 29 232.168 29H243.149C243.544 29 243.89 28.7527 243.89 28.4065C243.89 28.1097 243.643 27.9118 243.149 27.6645C242.11 27.1699 241.121 25.5871 241.121 21.9269V15.843C241.17 13.4194 242.456 11.6882 244.039 11.6882C246.116 11.6882 246.71 14.4086 247.155 17.9204L247.847 22.9656C248.243 25.8839 246.759 27.2194 245.819 27.6645C245.325 27.9118 245.127 28.1097 245.127 28.4065ZM270.376 10.6C271.81 11.2925 273.047 13.4688 272.107 15.6452L269.535 21.3333L267.26 16.1398C265.529 12.2817 265.43 11.1441 266.617 10.5505C267.111 10.3032 267.309 10.1054 267.309 9.8086C267.309 9.46236 267.062 9.21505 266.567 9.21505H255.686C255.241 9.21505 254.944 9.4129 254.944 9.8086C254.944 10.1054 255.241 10.3032 255.686 10.5011C256.922 10.8968 257.813 11.8366 259.593 15.4968L266.122 29L267.656 28.9505L273.641 15.6452C274.58 13.4688 276.707 11.243 278.339 10.6C278.785 10.4021 279.032 10.1054 279.032 9.8086C279.032 9.46236 278.735 9.21505 278.29 9.21505H270.425C269.931 9.21505 269.634 9.46236 269.634 9.8086C269.634 10.1054 269.881 10.4021 270.376 10.6ZM295.244 23.2129C295.145 23.1634 294.996 23.2624 294.947 23.3613C294.551 24.4989 292.77 25.686 290.644 25.686C286.934 25.686 285.203 22.471 284.807 18.9591L294.106 18.4645C295.343 18.4151 296.134 17.7226 296.134 16.8323V16.7828C296.134 13.6172 293.463 8.76989 288.467 8.76989C274.37 8.76989 273.53 29.1484 287.527 29.1484C291.534 29.1484 294.848 27.071 295.491 23.5097C295.491 23.3613 295.392 23.2624 295.293 23.2129H295.244ZM284.708 17.4258C284.708 13.6172 286.241 9.90752 288.467 9.90752C291.188 9.90752 292.325 16.7333 289.11 17.1785L284.708 17.4258ZM313.826 16.5355C313.826 16.7828 314.073 16.8817 314.42 16.8817C314.667 16.8817 314.865 16.7828 314.865 16.5355L313.974 8.67096C313.974 8.47311 313.826 8.37419 313.579 8.37419C313.331 8.42365 313.232 8.52258 313.232 8.72043C313.183 9.31397 312.787 9.85806 312.194 9.85806C311.254 9.85806 308.83 8.91828 306.703 8.91828C303.538 8.91828 298.987 10.5011 298.987 14.9032C298.987 20.9376 311.897 21.9763 311.897 25.5871C311.897 27.4667 309.473 28.2581 307.149 28.2581C304.873 28.2581 302.697 27.5161 302.697 26.3785C302.697 25.5376 303.835 25.043 303.835 23.757C303.835 21.9269 302.45 20.9376 301.065 20.9376C299.581 20.9376 298.146 21.9763 298.146 24.1527C298.146 27.3183 302.648 29.4946 306.703 29.4946C311.353 29.4946 316.992 27.4172 316.992 22.7677C316.992 16.2387 303.835 15.3484 303.835 11.4903C303.835 10.6989 304.972 10.1548 306.456 10.1548C309.028 10.1548 312.738 11.7376 313.826 16.5355ZM318.182 9.21505C317.934 9.21505 317.786 9.36344 317.786 9.61075V10.1054C317.786 10.3527 317.934 10.5011 318.182 10.5011H319.023C319.962 10.5011 320.16 11.5398 320.21 12.529V24.9441C320.16 27.8624 322.436 29.3957 325.107 29.3957C327.629 29.3957 330.547 27.9613 332.081 24.9935C332.18 24.7957 332.13 24.4989 331.932 24.3011C331.784 24.1032 331.586 24.1527 331.438 24.3505C330.844 25.1419 329.459 26.329 328.42 26.329C327.679 26.329 327.134 25.7849 327.134 24.1032V10.5011H330.894C331.141 10.5011 331.289 10.3527 331.289 10.1054V9.61075C331.289 9.36344 331.141 9.21505 330.894 9.21505H328.322C327.085 9.11613 327.134 6.93978 327.134 5.75268V4.36774H326.343C324.315 7.97849 320.309 9.21505 319.023 9.21505H318.182ZM380.996 1.69677C380.996 1.99354 381.243 2.19139 381.738 2.38924C382.381 2.68602 382.777 3.27956 383.123 3.97204L376.989 22.5699C376.248 24.7957 373.873 26.972 372.291 27.6151C371.796 27.8129 371.549 28.1097 371.549 28.4065C371.549 28.7527 371.845 29 372.291 29H381.491C381.886 29 382.232 28.7527 382.232 28.4065C382.232 28.1097 381.985 27.8624 381.491 27.6151C380.106 26.9226 377.731 24.8452 378.523 22.5699L379.067 20.8387L389.207 20.8882L389.998 22.9656C390.691 25.5871 389.8 27.1204 388.811 27.6645C388.316 27.9118 388.069 28.1097 388.069 28.4065C388.069 28.7527 388.415 29 388.811 29H401.572C402.067 29 402.314 28.7527 402.314 28.4065C402.314 28.1097 402.067 27.8624 401.572 27.714C400.286 27.3183 398.506 26.0817 396.824 21.9269L389.899 2.78494C389.553 1.79569 388.415 1.10322 387.08 1.10322H381.738C381.293 1.10322 380.996 1.35053 380.996 1.69677ZM383.914 6L388.811 19.7011L379.463 19.6516L383.914 6ZM418.885 16.5355C418.885 16.7828 419.133 16.8817 419.479 16.8817C419.726 16.8817 419.924 16.7828 419.924 16.5355L419.034 8.67096C419.034 8.47311 418.885 8.37419 418.638 8.37419C418.391 8.42365 418.292 8.52258 418.292 8.72043C418.242 9.31397 417.847 9.85806 417.253 9.85806C416.313 9.85806 413.89 8.91828 411.763 8.91828C408.597 8.91828 404.047 10.5011 404.047 14.9032C404.047 20.9376 416.956 21.9763 416.956 25.5871C416.956 27.4667 414.533 28.2581 412.208 28.2581C409.933 28.2581 407.756 27.5161 407.756 26.3785C407.756 25.5376 408.894 25.043 408.894 23.757C408.894 21.9269 407.509 20.9376 406.124 20.9376C404.64 20.9376 403.206 21.9763 403.206 24.1527C403.206 27.3183 407.707 29.4946 411.763 29.4946C416.412 29.4946 422.051 27.4172 422.051 22.7677C422.051 16.2387 408.894 15.3484 408.894 11.4903C408.894 10.6989 410.031 10.1548 411.515 10.1548C414.087 10.1548 417.797 11.7376 418.885 16.5355ZM428.484 7.78064C430.908 7.78064 433.232 6.14838 433.579 4.16989C433.974 2.19139 432.243 0.608599 429.82 0.608599C427.346 0.608599 425.022 2.19139 424.675 4.16989C424.329 6.14838 425.961 7.78064 428.484 7.78064ZM424.428 11.3914C424.428 11.6882 424.576 11.886 424.972 12.0839C425.764 12.529 425.813 13.7161 425.813 14.6064V21.9269C425.813 25.5871 424.824 27.1699 423.785 27.6645C423.29 27.9118 423.043 28.1097 423.043 28.4065C423.043 28.7527 423.34 29 423.835 29H434.766C435.211 29 435.508 28.7527 435.508 28.4065C435.508 28.1097 435.26 27.9118 434.766 27.6645C433.826 27.2194 432.886 25.8839 432.787 22.7677V8.86881C432.787 8.6215 432.639 8.47311 432.342 8.47311C432.144 8.47311 431.847 8.57204 431.65 8.72043C430.413 9.56129 427.693 10.6495 424.972 10.7978C424.626 10.7978 424.428 11.0452 424.428 11.3914ZM458.644 27.9118C458.941 27.6645 459.04 27.1204 458.941 26.7247C458.793 26.329 458.644 26.329 458.199 26.5763C457.903 26.7247 457.556 26.8237 457.309 26.8237C456.419 26.8237 456.419 25.9333 456.27 24.5978L455.331 16.6344C454.687 11.1935 450.731 9.0172 444.894 9.0172C441.085 9.0172 438.315 11.9355 438.315 14.7548C438.315 16.7828 439.651 17.6237 441.036 17.6237C442.47 17.6237 444.004 16.6344 444.004 15.0516C444.004 13.0237 441.184 10.3032 444.449 10.3032C447.417 10.3032 448.109 13.5183 448.257 14.7548C448.752 19.3548 436.733 17.8215 436.733 24.5484C436.733 27.9118 439.552 29.5935 442.569 29.5935C445.24 29.5935 448.158 28.2581 449.395 25.5376L449.444 25.8839C449.543 26.9226 450.038 29.2968 454.539 29.2968C456.617 29.2968 457.952 28.5054 458.644 27.9118ZM444.103 24.5484C444.103 20.7892 447.219 20.2946 448.554 17.4258L449.148 23.114C448.703 25.1419 447.07 26.2301 445.784 26.2301C444.844 26.2301 444.103 25.686 444.103 24.5484Z" fill="black"/>
<path d="M346.422 10.9462C346.422 8.70394 346.95 7.12114 348.005 6.19785C349.06 5.27455 350.363 4.8129 351.913 4.8129C353.463 4.8129 354.765 5.27455 355.82 6.19785C356.876 7.12114 357.403 8.70394 357.403 10.9462C357.403 13.1226 356.876 14.6889 355.82 15.6452C354.765 16.6014 353.463 17.0796 351.913 17.0796C350.363 17.0796 349.06 16.6014 348.005 15.6452C346.95 14.6889 346.422 13.1226 346.422 10.9462Z" fill="#545FDB"/>
</svg>
